<?xml version="1.0" standalone="no"?>
<!DOCTYPE svg PUBLIC "-//W3C//DTD SVG 20010904//EN"
 "http://www.w3.org/TR/2001/REC-SVG-20010904/DTD/svg10.dtd">
<svg version="1.0" xmlns="http://www.w3.org/2000/svg"
 width="260.000000pt" height="260.000000pt" viewBox="0 0 260.000000 260.000000"
 preserveAspectRatio="xMidYMid meet">
<metadata>
Created by potrace 1.11, written by Peter Selinger 2001-2013
</metadata>
<g transform="translate(0.000000,260.000000) scale(0.100000,-0.100000)"
fill="#000000" stroke="none">
<path d="M0 1300 l0 -1300 1300 0 1300 0 0 1300 0 1300 -1300 0 -1300 0 0
-1300z m1450 824 c220 -66 367 -232 426 -480 26 -109 26 -338 -1 -444 -75
-302 -247 -472 -535 -529 -92 -18 -250 -71 -273 -91 -7 -7 264 -59 420 -81 45
-6 137 -9 205 -7 101 3 132 8 175 27 48 21 116 82 140 124 15 28 46 11 38 -20
-11 -44 -64 -147 -94 -184 -65 -78 -210 -127 -344 -116 -92 7 -173 33 -372
117 -230 97 -263 106 -326 92 -63 -15 -164 -16 -190 -2 -22 12 -25 43 -6 58
22 18 94 24 170 13 81 -11 112 -5 232 49 l50 23 -61 13 c-124 26 -256 107
-327 199 -102 133 -149 295 -150 510 -1 157 19 259 71 376 84 186 244 322 432
364 81 18 242 13 320 -11z"/>
<path d="M1139 2082 c-64 -26 -110 -63 -158 -127 -182 -240 -199 -752 -36
-1031 42 -72 126 -151 192 -181 82 -38 185 -37 265 1 71 33 147 115 192 205
132 262 124 703 -18 945 -38 65 -124 148 -182 176 -66 33 -190 38 -255 12z"/>
</g>
</svg>
